#!OML:ASF F:\VICON\USERDATA\INSTALL\rory3\rory3.ASF
:FULLY-SPECIFIED
:DEGREES
18
root 0.8532004857847533 17.721810862755937 -15.393888330229684 0.6113183735702541 -7.219714472190406 -8.965483122967475
lfemur -25.77368816269651 -5.691877617218306 -7.084758304812089
ltibia 12.623810470481157
lfoot -6.506939132682452 13.109880335571667
ltoes -0.467492432958148
rfemur 11.399383798238333 8.370176087144014 35.485685581140245
rtibia 23.550307312614457
rfoot -17.988289903091015 -5.057512377338886
rtoes -6.620394004244959
lowerback 8.691004969335857 2.9330265492502834 9.205021773455291
upperback -0.2961010824946338 4.959955254815561 2.3464130004333574
thorax -4.627068061223091 2.252445786276577 -3.285372793834648
lowerneck -16.812697477787427 -2.842611581485054 -1.278770204126722
upperneck 21.77109099264765 -3.6821302754967338 0.25725344875684575
head 9.702821473988417 -1.783680136979231 -0.18316458535171357
lclavicle -1.9532406450981722e-15 9.067692723530645e-16
lhumerus -38.73858630070016 6.998758103680249 81.50190922320465
lradius 21.81500737377341
lwrist 2.181877801554387
lhand -26.959001185364382 19.65451035906941
lfingers 7.12502
lthumb -0.38045118546129103 49.633910334165165
rclavicle -1.9532406450981722e-15 9.067692723530645e-16
rhumerus -21.923517347229797 -8.062566419416376 -82.99508682301622
rradius 29.725085087254566
rwrist 1.1132425232620928
rhand -18.3558928462036 25.061889232939414
rfingers 7.12502
rthumb 7.92684715323144 -4.769470660704259
19
root 0.9375104698111061 17.818605433684287 -14.527988716893104 0.022008424447381714 -7.2347544258143035 -7.496886733514476
lfemur -24.746088857474536 -3.71945517898686 -10.409513518293856
ltibia 15.30130899622429
lfoot 0.23016691159080604 5.892660538807225
ltoes -1.708382635593522
rfemur 12.902182781693742 7.801058114359773 33.329588753352105
rtibia 26.20290580675723
rfoot -14.400793648676537 -2.7755366280298945
rtoes -10.65697757961516
lowerback 8.540246855089347 2.9138266637801085 7.867064839450532
upperback -0.20208064196019188 4.766205999680808 2.1079354099589587
thorax -4.547449874083488 2.1937262746363877 -2.767044933570514
lowerneck -16.94959562751141 -2.8543511694818737 -1.4385578115415902
upperneck 22.056087608310786 -3.615011714522046 0.09139802747715031
head 9.828907516377091 -1.783740133640304 -0.2104246855617428
lclavicle -1.9532406683098537e-15 9.067691698370563e-16
lhumerus -39.17258561642481 8.868084557357797 80.7498134767226
lradius 20.294110612158274
lwrist 1.1092113278760438
lhand -27.20779988368733 18.48601356273374
lfingers 7.12502
lthumb -0.6207718835770943 48.46481353897279
rclavicle -1.9532406683098537e-15 9.067691698370563e-16
rhumerus -22.889614665593175 -9.356964269179368 -82.56978827452367
rradius 29.250086535557877
rwrist 1.5441814525240787
rhand -19.79068051460789 23.016497377356664
rfingers 7.12502
rthumb 6.541909487886906 -6.862472300716443
20
root 0.9908761937594666 17.918499830747738 -13.649489109183074 -1.037329615179502 -5.646659322748793 -4.494634114558265
lfemur -22.277190526740355 -3.7424850906960083 -14.944306989731466
ltibia 16.290208451726564
lfoot 3.032019602933592 0.12930668666174516
ltoes -3.0354207134481928
rfemur 11.890783465838844 6.226153724217706 29.764293998882003
rtibia 32.99190195270277
rfoot -7.956000377470873 -1.7821084785123595
rtoes -9.703399097331491
lowerback 8.386508778117612 2.6323183430139583 4.809441846146558
upperback -0.31018469910425933 4.050038752971878 1.373542830101535
thorax -4.793894262686292 1.8981187331521456 -1.7586790962573415
lowerneck -16.252005055944924 -3.0290950368110257 -1.45551755759426
upperneck 22.235285480334767 -3.8949857118655067 0.19302229251415648
head 9.76651947462414 -1.9058433383668243 -0.19979703635473708
lclavicle -1.953240616762468e-15 9.067692386692542e-16
lhumerus -39.319885384181084 10.017582376631207 79.69281945460912
lradius 18.120415240521236
lwrist -0.6389309252193502
lhand -27.039500764202796 18.007514874632243
lfingers 7.12502
lthumb -0.4582557639722059 47.986814849295314
rclavicle -1.953240616762468e-15 9.067692386692542e-16
rhumerus -24.533710102008907 -12.342309309962666 -81.76359102600568
rradius 27.66969135429171
rwrist 2.5871188611760525
rhand -20.067978131313016 22.673998741130454
rfingers 7.12502
rthumb 6.274181872346501 -7.21312090013559
21
root 0.949085485013059 17.92725450183388 -0.6637588928858502 -1.9982018162680508 -4.913148976274172 -2.6428364106540605
lfemur -18.489437828762075 -2.062615058936285 -18.816080766041146
ltibia 25.973970622244146
lfoot -2.858290150714809 -3.1745205390369247
ltoes -2.8921896445463737
rfemur 5.341809257254258 5.194098509322799 26.61111146806541
rtibia 46.5955886583256
rfoot 4.52407834505048 2.971210371637559
rtoes 2.3789358237621596
lowerback 9.202289682823713 2.6842578770847663 3.723901493710434
upperback -0.007881929066319182 3.988100413111302 0.790435983672572
thorax -4.967154541776793 1.89513009359243 -1.392743301404478
lowerneck -16.191882435788784 -3.17004190196229 -1.3769864034956574
upperneck 22.05753614987319 -4.103204204414318 0.5478227469207315
head 9.76865793981787 -1.976847205467689 -0.10238546533823567
lclavicle -1.2180829170884329e-15 1.5835561570804346e-15
lhumerus -37.17669697900395 8.9520127394363 80.74663267124241
lradius 18.28943878142126
lwrist 0.294144579631225
lhand -25.16326258356761 22.731557861645047
lfingers 7.12502
lthumb 1.3539828569116892 52.71182416681003
rclavicle -1.2180829170884325e-15 1.5835561570804346e-15
rhumerus -25.460416229176516 -14.094783019751667 -80.47604218677623
rradius 27.515156701544797
rwrist 2.7948784707169496
rhand -18.24214077658671 22.991172486651863
rfingers 7.12502
rthumb 8.03650628644617 -6.834314507454839
22
root 0.9990998667598978 17.984947783861088 -1.0726175973817114 -2.6464185687654673 -4.9314946664438395 -1.0622630004163827
lfemur -15.723852212738096 -1.7423797891133037 -21.12216709711272
ltibia 28.689663387257667
lfoot -5.101444807065932 -1.2980503173442322
ltoes -0.8402417034877563
rfemur -0.05260995662260726 4.242753813807073 24.584749247001767
rtibia 58.21338316600305
rfoot 12.254448600168676 2.025275221319088
rtoes 9.706279648178544
lowerback 9.66747195482629 2.7074172494601094 2.330406564278401
upperback 0.12446960697913673 3.8554743101954267 0.43189632541558165
thorax -5.108893652871508 1.8559398453340292 -0.874964649985012
lowerneck -16.277514407407253 -3.1069729636489307 -1.3370057262171633
upperneck 21.94212837502504 -4.029463119479034 0.6319280983673441
head 9.746943601641807 -1.9379185454523162 -0.07444050909863234
lclavicle -7.053054500828097e-16 2.0562548700276876e-15
lhumerus -36.44185347950699 8.283412628266886 81.30599664574653
lradius 19.31003100178193
lwrist 1.3179358412393563
lhand -25.39364616166849 23.711081647278654
lfingers 7.12502
lthumb 1.131473893458683 53.68660381881624
rclavicle -7.053054500828099e-16 2.0562548700276876e-15
rhumerus -26.006451805008666 -14.989130217061572 -80.2507402838627
rradius 26.898382813782874
rwrist 4.002974347823002
rhand -17.72414288248424 22.41292376960915
rfingers 7.12502
rthumb 8.536401290644642 -7.393396290566242
23
root 1.00431902383197 18.029520416458976 -2.0324123751778647 -3.1743644023062485 -5.051286559342207 0.04925029185257346
lfemur -13.275721399383137 -2.035427727073499 -23.110752382964613
ltibia 28.297386413561433
lfoot -7.325937616189983 0.5316621758223583
ltoes 0.8531751159314331
rfemur -6.111780848889381 3.3366945984995153 22.66647143114347
rtibia 65.87615390463722
rfoot 12.2079605470825 -1.4296776430877678
rtoes 11.840059321152319
lowerback 9.977936621736498 2.471318008578302 0.8551292935758501
upperback 0.28111900002868945 3.373152506943422 0.15650425276741342
thorax -5.1697619271838855 1.647650136102972 -0.3946943885726123
lowerneck -16.330667958883563 -3.001951861863296 -1.3524249975006608
upperneck 21.820189232374073 -3.883407710348222 0.5788980270032411
head 9.703112842280179 -1.875083184997533 -0.06899013703599588
lclavicle -1.0885360328710804e-15 1.7028941164677317e-15
lhumerus -35.82262911895975 7.0768906333319315 81.79315199823212
lradius 20.13412590363597
lwrist 3.091453558392586
lhand -26.403077366483725 22.72056067350054
lfingers 7.12502
lthumb 0.15655388733774178 52.697231964161595
rclavicle -1.0885360328710802e-15 1.7028941164677317e-15
rhumerus -26.355040357003592 -16.307474584805345 -80.1380477161116
rradius 25.81508469272235
rwrist 5.4306174642164216
rhand -17.44246169694305 22.010509638625752
rfingers 7.12502
rthumb 8.808255383354497 -7.783486612299637
24
root 0.9918472437764221 18.06146600275715 -3.5965138119336295 -3.5309931681601237 -4.743064047642996 0.6303472566620902
lfemur -11.294005666278055 -2.1989327788580337 -24.62571229737263
ltibia 27.68130410377431
lfoot -9.08969054768362 1.2136376416985015
ltoes 0.6750524340070325
rfemur -12.071356923676538 2.266818473166454 21.43237945966751
rtibia 70.57270860033259
rfoot 6.752701654656905 -4.103352715719117
rtoes 10.888071542877679
lowerback 10.186168311295344 2.0039406124410064 -0.26073021930340157
upperback 0.4154065220393803 2.6296859290029415 0.10264676512992654
thorax -5.209706099446235 1.306740519161639 0.06427168258652582
lowerneck -16.298856689725984 -2.8742801237676487 -1.3465933629082265
upperneck 21.78090115870636 -3.676079379096846 0.3612751923199749
head 9.670114387573284 -1.7990976938169398 -0.10206406145878513
lclavicle -1.7420421048495197e-15 1.1006432390015398e-15
lhumerus -34.83776724429379 5.753199102561777 82.1467993957706
lradius 20.6572248819665
lwrist 3.4244278082131134
lhand -26.93337361096614 22.342439467699826
lfingers 7.12502
lthumb -0.3556162348818125 52.31700954428001
rclavicle -1.7420421048495197e-15 1.1006432390015398e-15
rhumerus -26.77541265347774 -17.386161132032836 -80.12187489116646
rradius 24.84854241760822
rwrist 6.4730412510175475
rhand -16.929012800443655 21.98368314451877
rfingers 7.12502
rthumb 9.303774094287586 -7.789406679911375
